<?xml version="1.0" encoding="utf-8"?>
<!-- Generator: Adobe Illustrator 16.0.0, SVG Export Plug-In . SVG Version: 6.00 Build 0)  -->
<!DOCTYPE svg PUBLIC "-//W3C//DTD SVG 1.1//EN" "http://www.w3.org/Graphics/SVG/1.1/DTD/svg11.dtd">
<svg version="1.1" id="Layer_1" xmlns="http://www.w3.org/2000/svg" xmlns:xlink="http://www.w3.org/1999/xlink" x="0px" y="0px"
	 width="1200px" height="599px" viewBox="0 0 1200 599" enable-background="new 0 0 1200 599" xml:space="preserve">
<path fill="#969696" d="M440.423,549.396c-7.137,7.722-17.081,12.167-27.61,12.167s-20.474-4.445-27.61-12.167L282.249,437.083
	c-13.922-15.209-12.986-38.959,2.34-52.881c15.326-13.922,38.958-12.986,52.881,2.34l37.905,41.299V74.875
	c0-20.708,16.73-37.438,37.438-37.438c20.708,0,37.438,16.73,37.438,37.438v352.966l37.905-41.416
	c13.922-15.209,37.672-16.262,52.881-2.34c15.209,13.923,16.262,37.672,2.34,52.881L440.423,549.278V549.396z M637.438,561.563
	c-20.708,0-37.438-16.729-37.438-37.438s16.729-37.438,37.438-37.438h37.438c20.708,0,37.438,16.729,37.438,37.438
	s-16.729,37.438-37.438,37.438H637.438z M637.438,411.813c-20.708,0-37.438-16.729-37.438-37.438s16.729-37.438,37.438-37.438
	H749.75c20.708,0,37.438,16.729,37.438,37.438s-16.729,37.438-37.438,37.438H637.438z M637.438,262.063
	c-20.708,0-37.438-16.73-37.438-37.438s16.729-37.438,37.438-37.438h187.188c20.708,0,37.438,16.73,37.438,37.438
	s-16.729,37.438-37.438,37.438H637.438z M637.438,112.313c-20.708,0-37.438-16.73-37.438-37.438s16.729-37.438,37.438-37.438H899.5
	c20.708,0,37.438,16.73,37.438,37.438s-16.729,37.438-37.438,37.438H637.438z"/>
</svg>
